<?xml version="1.0" standalone="no"?><svg xmlns="http://www.w3.org/2000/svg" viewBox="0 0 1440 320"><path fill="#000b76" fill-opacity="1" d="M0,192L17.1,176C34.3,160,69,128,103,144C137.1,160,171,224,206,224C240,224,274,160,309,122.7C342.9,85,377,75,411,96C445.7,117,480,171,514,192C548.6,213,583,203,617,170.7C651.4,139,686,85,720,58.7C754.3,32,789,32,823,58.7C857.1,85,891,139,926,138.7C960,139,994,85,1029,58.7C1062.9,32,1097,32,1131,74.7C1165.7,117,1200,203,1234,208C1268.6,213,1303,139,1337,117.3C1371.4,96,1406,128,1423,144L1440,160L1440,320L1422.9,320C1405.7,320,1371,320,1337,320C1302.9,320,1269,320,1234,320C1200,320,1166,320,1131,320C1097.1,320,1063,320,1029,320C994.3,320,960,320,926,320C891.4,320,857,320,823,320C788.6,320,754,320,720,320C685.7,320,651,320,617,320C582.9,320,549,320,514,320C480,320,446,320,411,320C377.1,320,343,320,309,320C274.3,320,240,320,206,320C171.4,320,137,320,103,320C68.6,320,34,320,17,320L0,320Z"></path></svg>